<svg xmlns="http://www.w3.org/2000/svg" width="114" height="79" fill="none"><path stroke="#48C397" stroke-width="3" d="M45.548 4.273C36.179 8.637 15.135 19.567 5.904 28.374c-11.537 11.01 29.88-2.38 36.39 14.878.705 1.871.854 3.88.552 5.95M70.4 25.4C25.133 31.945-2.675 53.07 2.65 71.22c4.748 16.181 37.712-5.003 40.196-22.019M55.606 1c-4.76 11.01-11.834 27.374-12.76 48.202m0 0c-.085.794.04 3.571 1.222 8.332 1.48 5.95 7.692-.893 8.58-11.902.493 7.042 2.958 16.662 8.875-1.19C60.833 51.484 68 61 78 38.5c-2 15 7 16.5 34-12.5"/></svg>