<svg xmlns="http://www.w3.org/2000/svg" width="154" height="27" fill="none"><g fill="#4C556C" clip-path="url(#a)"><path d="M23.153 20.694h7.995L11.342.89H3.347l19.806 19.805ZM15.45.889 34.542 19.98V.889h-5.167v6.027L23.347.89H15.45ZM0 1.552v19.142h5.167v-6.028l6.027 6.028h7.948L0 1.552Zm47.01 16.164h4.63v2.729h-8.164V5.937h3.534v11.78Zm10.944 2.894c-1.13 0-2.15-.241-3.059-.724a5.384 5.384 0 0 1-2.128-2.066c-.51-.896-.765-1.943-.765-3.142 0-1.184.262-2.225.785-3.12a5.31 5.31 0 0 1 2.15-2.088c.91-.482 1.929-.723 3.058-.723 1.13 0 2.15.241 3.06.723a5.31 5.31 0 0 1 2.148 2.088c.524.895.786 1.936.786 3.12 0 1.185-.269 2.232-.806 3.142a5.315 5.315 0 0 1-2.17 2.066c-.91.483-1.93.724-3.059.724Zm0-3.059a2.27 2.27 0 0 0 1.715-.744c.483-.496.724-1.205.724-2.129 0-.923-.235-1.632-.703-2.128a2.206 2.206 0 0 0-1.695-.744c-.688 0-1.26.248-1.715.744-.455.482-.682 1.192-.682 2.128 0 .924.22 1.633.661 2.13a2.21 2.21 0 0 0 1.695.743Zm11.671-8.804c.813 0 1.522.165 2.129.496.62.33 1.095.765 1.426 1.302V8.912h3.534v11.512c0 1.06-.214 2.018-.641 2.872-.413.868-1.054 1.557-1.922 2.067-.854.51-1.922.765-3.203.765-1.709 0-3.093-.407-4.154-1.22-1.061-.799-1.668-1.887-1.82-3.265h3.494c.11.441.372.785.785 1.033.413.262.923.393 1.53.393.73 0 1.308-.213 1.735-.64.441-.414.662-1.082.662-2.005V18.79a4.02 4.02 0 0 1-1.426 1.323c-.607.33-1.316.496-2.13.496-.95 0-1.81-.241-2.582-.724-.772-.496-1.385-1.191-1.84-2.087-.44-.91-.661-1.956-.661-3.141s.22-2.225.661-3.12c.455-.896 1.068-1.585 1.84-2.068a4.775 4.775 0 0 1 2.583-.723Zm3.555 5.931c0-.881-.248-1.577-.744-2.087a2.35 2.35 0 0 0-1.778-.765c-.702 0-1.302.255-1.798.765-.482.496-.723 1.185-.723 2.067 0 .882.241 1.584.723 2.108.496.51 1.096.764 1.798.764a2.35 2.35 0 0 0 1.778-.764c.496-.51.744-1.206.744-2.088ZM83.9 20.61c-1.13 0-2.15-.241-3.06-.724a5.384 5.384 0 0 1-2.128-2.066c-.51-.896-.764-1.943-.764-3.142 0-1.184.261-2.225.785-3.12a5.31 5.31 0 0 1 2.15-2.088c.909-.482 1.928-.723 3.058-.723s2.15.241 3.059.723a5.31 5.31 0 0 1 2.149 2.088c.523.895.785 1.936.785 3.12 0 1.185-.268 2.232-.806 3.142a5.315 5.315 0 0 1-2.17 2.066c-.91.483-1.929.724-3.058.724Zm0-3.059a2.27 2.27 0 0 0 1.715-.744c.482-.496.723-1.205.723-2.129 0-.923-.234-1.632-.702-2.128a2.205 2.205 0 0 0-1.695-.744c-.689 0-1.26.248-1.715.744-.455.482-.682 1.192-.682 2.128 0 .924.22 1.633.66 2.13.456.495 1.02.743 1.696.743Zm9.066-9.837c-.62 0-1.13-.18-1.529-.537a1.822 1.822 0 0 1-.578-1.364c0-.551.192-1.006.578-1.364.4-.372.91-.558 1.53-.558.606 0 1.102.186 1.487.558.4.358.6.813.6 1.364 0 .537-.2.992-.6 1.364-.385.358-.881.537-1.487.537Zm1.757 1.199v11.532H91.19V8.913h3.534Zm5.475 1.632c.345-.537.82-.971 1.426-1.302.606-.33 1.316-.496 2.129-.496.951 0 1.812.241 2.583.723.772.483 1.378 1.172 1.819 2.067.455.896.682 1.936.682 3.12 0 1.186-.227 2.233-.682 3.142-.441.896-1.047 1.591-1.819 2.087a4.771 4.771 0 0 1-2.583.724c-.799 0-1.509-.166-2.129-.496a3.902 3.902 0 0 1-1.426-1.282v7.11h-3.534V8.912h3.534v1.633Zm5.043 4.113c0-.882-.248-1.57-.744-2.067-.482-.51-1.082-.765-1.798-.765-.703 0-1.302.255-1.798.765-.482.51-.723 1.206-.723 2.087 0 .882.241 1.578.723 2.088.496.51 1.095.764 1.798.764.703 0 1.302-.254 1.798-.764.496-.524.744-1.226.744-2.108Zm9.521 5.952c-1.006 0-1.901-.172-2.686-.517-.786-.344-1.406-.813-1.86-1.405a3.774 3.774 0 0 1-.765-2.026h3.493c.041.4.227.724.558.972.33.248.737.372 1.219.372.441 0 .778-.083 1.013-.248.248-.18.372-.407.372-.682 0-.33-.173-.572-.517-.724-.345-.165-.903-.344-1.674-.537a17.026 17.026 0 0 1-2.067-.6 3.715 3.715 0 0 1-1.426-1.012c-.399-.468-.599-1.095-.599-1.88 0-.662.179-1.261.537-1.799.372-.55.91-.985 1.612-1.302.717-.316 1.564-.475 2.542-.475 1.447 0 2.584.358 3.41 1.075.841.716 1.323 1.667 1.447 2.852h-3.265a1.397 1.397 0 0 0-.538-.95c-.289-.235-.675-.352-1.157-.352-.413 0-.73.082-.951.248a.733.733 0 0 0-.33.64c0 .331.172.58.516.744.358.166.91.331 1.654.496.854.22 1.55.441 2.087.662a3.393 3.393 0 0 1 1.405 1.033c.414.469.627 1.102.641 1.901 0 .676-.193 1.282-.579 1.82-.372.523-.916.936-1.632 1.24-.703.302-1.523.454-2.46.454Zm17.6-11.697v11.532h-3.534v-1.571c-.358.51-.847.923-1.467 1.24-.606.303-1.281.455-2.025.455-.882 0-1.661-.193-2.336-.579-.675-.4-1.198-.971-1.57-1.715-.372-.744-.558-1.62-.558-2.625V8.913h3.513v6.262c0 .771.2 1.37.599 1.798.4.427.937.64 1.612.64.689 0 1.233-.213 1.633-.64.4-.427.599-1.027.599-1.798V8.913h3.534Zm16.633-.124c1.433 0 2.57.434 3.41 1.302.855.868 1.282 2.073 1.282 3.616v6.738h-3.514v-6.263c0-.744-.199-1.315-.599-1.715-.386-.413-.923-.62-1.612-.62-.689 0-1.233.207-1.633.62-.385.4-.578.971-.578 1.715v6.263h-3.514v-6.263c0-.744-.199-1.315-.599-1.715-.386-.413-.923-.62-1.612-.62-.689 0-1.233.207-1.633.62-.385.4-.578.971-.578 1.715v6.263h-3.534V8.913h3.534v1.446a3.688 3.688 0 0 1 1.405-1.136c.579-.29 1.233-.434 1.963-.434.868 0 1.64.186 2.315.558a3.983 3.983 0 0 1 1.612 1.59 4.66 4.66 0 0 1 1.633-1.55 4.416 4.416 0 0 1 2.252-.598Z"/></g><defs><clipPath id="a"><path fill="#fff" d="M0 0h154v27H0z"/></clipPath></defs></svg>