<svg xmlns="http://www.w3.org/2000/svg" width="154" height="34" fill="none"><path fill="#4C556C" d="M45.11 22.691c0 .743-.153 1.313-.458 1.711-.297.399-.793.598-1.488.598-.656 0-1.121-.2-1.395-.598-.265-.398-.398-.968-.398-1.71V10.304c0-.742.133-1.313.398-1.711.274-.399.739-.598 1.395-.598.695 0 1.191.2 1.488.598.305.398.457.969.457 1.71V22.69Zm1.134-3.597c0-.828.133-1.61.399-2.344a5.47 5.47 0 0 1 1.218-1.945c.547-.555 1.227-.996 2.04-1.325.82-.328 1.78-.492 2.882-.492 1.055 0 1.989.153 2.801.457.813.305 1.496.73 2.05 1.278a5.333 5.333 0 0 1 1.266 1.933c.29.742.434 1.555.434 2.438a6.63 6.63 0 0 1-.41 2.332 5.435 5.435 0 0 1-1.23 1.922c-.547.547-1.231.984-2.051 1.312-.82.32-1.774.48-2.86.48-1.07 0-2.015-.152-2.836-.456-.812-.313-1.496-.739-2.05-1.278a5.432 5.432 0 0 1-1.243-1.922 6.86 6.86 0 0 1-.41-2.39Zm3.903 0c0 .515.046 1.008.14 1.476.094.461.242.867.445 1.22.211.35.485.632.82.843.337.203.747.305 1.231.305.445 0 .832-.094 1.16-.282.336-.187.61-.449.82-.785a3.76 3.76 0 0 0 .493-1.207c.11-.477.164-1 .164-1.57 0-.516-.05-1.004-.152-1.465a3.835 3.835 0 0 0-.458-1.23 2.347 2.347 0 0 0-.82-.844c-.328-.211-.73-.317-1.207-.317-.476 0-.883.102-1.219.305-.336.203-.609.48-.82.832a3.87 3.87 0 0 0-.457 1.23c-.094.47-.14.965-.14 1.489Zm18.806 3.644c-.21.39-.469.723-.773.996-.297.274-.63.5-.996.68-.36.172-.746.3-1.16.387a6.628 6.628 0 0 1-1.254.117 4.89 4.89 0 0 1-1.97-.387 4.339 4.339 0 0 1-1.534-1.113c-.422-.492-.75-1.094-.985-1.805-.234-.71-.351-1.523-.351-2.437 0-.86.11-1.664.328-2.414.219-.75.535-1.403.95-1.957a4.628 4.628 0 0 1 1.546-1.313c.61-.32 1.305-.48 2.086-.48.89 0 1.68.172 2.367.515.696.344 1.293.907 1.793 1.688v-.305c0-.562.153-.984.457-1.265.313-.29.742-.434 1.29-.434.327 0 .605.055.831.164.227.102.406.258.54.469.132.203.226.457.28.761.063.297.094.637.094 1.02v7.852c0 .953-.12 1.804-.363 2.554-.234.75-.602 1.383-1.102 1.899-.5.515-1.14.906-1.921 1.172-.782.273-1.711.41-2.79.41-.757 0-1.43-.035-2.015-.106a7.844 7.844 0 0 1-1.5-.293c-.422-.148-.742-.312-.961-.492a.88.88 0 0 1-.316-.703c0-.164.023-.32.07-.469a1.22 1.22 0 0 1 .21-.398c.102-.11.231-.2.388-.27.164-.062.363-.093.597-.093.25 0 .5.015.75.046.258.032.524.063.797.094.281.04.574.074.879.106.313.03.648.046 1.008.046.43 0 .812-.043 1.148-.128a1.93 1.93 0 0 0 .856-.457c.234-.22.414-.512.539-.88.125-.359.187-.82.187-1.382v-1.395Zm0-3.644c0-.57-.043-1.09-.129-1.559-.078-.469-.215-.867-.41-1.195a2.018 2.018 0 0 0-.785-.774c-.328-.187-.738-.28-1.23-.28-.485 0-.887.097-1.207.292a2.141 2.141 0 0 0-.75.809c-.188.343-.32.746-.399 1.207a9.8 9.8 0 0 0-.105 1.476c0 1.196.21 2.094.632 2.696.422.601 1.036.902 1.84.902a2.667 2.667 0 0 0 1.02-.211c.312-.14.582-.355.808-.645.227-.289.403-.656.528-1.101.125-.445.187-.984.187-1.617Zm4.616 0c0-.828.132-1.61.398-2.344a5.47 5.47 0 0 1 1.219-1.945c.547-.555 1.226-.996 2.039-1.325.82-.328 1.781-.492 2.883-.492 1.054 0 1.988.153 2.8.457.813.305 1.496.73 2.051 1.278a5.331 5.331 0 0 1 1.266 1.933c.289.742.433 1.555.433 2.438a6.63 6.63 0 0 1-.41 2.332 5.437 5.437 0 0 1-1.23 1.922c-.547.547-1.23.984-2.051 1.312-.82.32-1.773.48-2.86.48-1.07 0-2.015-.152-2.835-.456-.813-.313-1.496-.739-2.051-1.278a5.435 5.435 0 0 1-1.242-1.922 6.862 6.862 0 0 1-.41-2.39Zm3.902 0c0 .515.047 1.008.14 1.476.094.461.243.867.446 1.22.21.35.484.632.82.843.336.203.746.305 1.23.305.446 0 .833-.094 1.16-.282.337-.187.61-.449.821-.785a3.76 3.76 0 0 0 .492-1.207c.11-.477.164-1 .164-1.57 0-.516-.05-1.004-.152-1.465a3.835 3.835 0 0 0-.457-1.23 2.347 2.347 0 0 0-.82-.844c-.328-.211-.73-.317-1.207-.317-.477 0-.883.102-1.22.305a2.39 2.39 0 0 0-.82.832c-.21.352-.363.762-.456 1.23-.094.47-.141.965-.141 1.489ZM91.684 9.04c0 .257-.059.487-.176.69-.117.196-.27.36-.457.493a2.116 2.116 0 0 1-.656.304 2.988 2.988 0 0 1-1.535-.011 2.132 2.132 0 0 1-.645-.305 1.609 1.609 0 0 1-.445-.504 1.344 1.344 0 0 1-.164-.668c0-.226.05-.434.152-.621.11-.195.254-.363.434-.504.18-.14.394-.25.644-.328.25-.078.524-.117.82-.117.258 0 .508.035.75.105.25.07.47.172.657.305.187.133.336.297.445.492.117.195.176.418.176.668Zm-.176 13.651c0 .743-.152 1.313-.457 1.711-.297.399-.793.598-1.488.598-.656 0-1.121-.2-1.395-.598-.265-.398-.398-.968-.398-1.71V15.52c0-.743.133-1.313.398-1.711.274-.399.739-.598 1.395-.598.695 0 1.191.2 1.488.598.305.398.457.968.457 1.71v7.172Zm5.389-3.621c0 .524.039 1.012.117 1.465.086.453.227.852.422 1.195.203.336.469.602.797.797.336.196.75.293 1.242.293.453 0 .832-.093 1.137-.28.312-.196.562-.462.75-.798a3.86 3.86 0 0 0 .398-1.207c.086-.46.129-.96.129-1.5 0-.43-.031-.867-.094-1.312a4.239 4.239 0 0 0-.351-1.23 2.401 2.401 0 0 0-.715-.903c-.305-.235-.703-.352-1.195-.352-.493 0-.91.078-1.254.235-.336.156-.61.394-.82.714-.204.32-.348.723-.434 1.207a9.549 9.549 0 0 0-.13 1.676Zm-.012-3.55c.195-.415.445-.778.75-1.09a4.612 4.612 0 0 1 2.156-1.254c.407-.11.809-.164 1.207-.164.719 0 1.368.16 1.946.48.578.32 1.07.758 1.476 1.313.414.547.731 1.195.95 1.945.218.742.328 1.54.328 2.39 0 .883-.118 1.692-.352 2.426a5.723 5.723 0 0 1-.973 1.899 4.467 4.467 0 0 1-1.5 1.23 4.167 4.167 0 0 1-1.933.446c-.875 0-1.656-.203-2.344-.61-.687-.406-1.258-.976-1.71-1.71v4.218c0 .742-.153 1.313-.458 1.711-.297.398-.793.598-1.488.598-.656 0-1.121-.2-1.395-.598-.265-.398-.398-.969-.398-1.71V15.52c0-.743.133-1.313.398-1.711.274-.399.739-.598 1.395-.598.695 0 1.191.2 1.488.598.305.398.457.968.457 1.71Zm12.936.832c0 .304.133.543.398.714.266.165.633.301 1.102.41.445.102.902.2 1.371.294.469.093.926.203 1.371.328a9.47 9.47 0 0 1 1.254.422c.39.164.734.37 1.031.62.297.243.531.54.703.891.172.344.258.758.258 1.242 0 .61-.125 1.153-.375 1.63-.25.468-.605.867-1.066 1.195-.453.328-.996.582-1.629.761a7.966 7.966 0 0 1-2.098.282c-.726 0-1.426-.047-2.098-.141a8.559 8.559 0 0 1-1.793-.41c-.515-.188-.929-.418-1.242-.692-.312-.28-.468-.609-.468-.984 0-.328.105-.582.316-.762.211-.18.48-.27.809-.27.125 0 .273.024.445.071.172.047.359.106.562.176.203.07.418.148.645.234a9.8 9.8 0 0 0 .726.211c.313.086.633.156.961.211.336.047.68.07 1.032.07.218 0 .433-.02.644-.058.211-.047.399-.113.563-.2.172-.093.312-.21.422-.35.109-.142.175-.313.199-.517a.986.986 0 0 0 .058-.14.507.507 0 0 0 .024-.164c0-.219-.102-.414-.305-.586-.195-.172-.473-.309-.832-.41-.602-.14-1.176-.27-1.723-.387a24.416 24.416 0 0 1-1.523-.375 9.547 9.547 0 0 1-1.266-.457 3.543 3.543 0 0 1-.961-.633 2.712 2.712 0 0 1-.609-.902c-.141-.352-.211-.778-.211-1.278 0-.539.121-1.02.363-1.441.25-.43.606-.789 1.067-1.078.461-.29 1.019-.508 1.676-.656.656-.157 1.398-.235 2.226-.235 1.484 0 2.613.18 3.387.54.781.35 1.172.812 1.172 1.382 0 .32-.106.567-.317.738a1.203 1.203 0 0 1-.761.247c-.157 0-.321-.028-.493-.082a8.89 8.89 0 0 0-.597-.2 5.657 5.657 0 0 0-.844-.199 6.385 6.385 0 0 0-1.195-.094c-.36 0-.688.016-.985.047a3.143 3.143 0 0 0-.75.164 1.199 1.199 0 0 0-.48.317.763.763 0 0 0-.164.504Zm12.244 4.3c0 .367.047.688.141.961.101.274.238.504.41.692.172.18.371.316.597.41.235.086.485.129.75.129.313 0 .614-.047.903-.14a2.147 2.147 0 0 0 1.301-1.173c.132-.297.199-.644.199-1.043V15.52c0-.743.133-1.313.398-1.711.274-.399.739-.598 1.395-.598.695 0 1.191.2 1.488.598.305.398.457.968.457 1.71v7.172c0 .743-.152 1.313-.457 1.711-.297.399-.793.598-1.488.598-.656 0-1.121-.2-1.395-.598-.265-.398-.398-.968-.398-1.71a3.89 3.89 0 0 1-.645.984 3.99 3.99 0 0 1-.914.773 4.467 4.467 0 0 1-1.148.492 4.937 4.937 0 0 1-1.348.176 4.32 4.32 0 0 1-1.512-.27 3.761 3.761 0 0 1-1.265-.82 4.05 4.05 0 0 1-.879-1.359c-.219-.54-.328-1.168-.328-1.887V15.52c0-.743.133-1.313.398-1.711.274-.399.738-.598 1.395-.598.695 0 1.191.2 1.488.598.305.398.457.968.457 1.71v5.133Zm9.736-5.132c0-.743.133-1.313.399-1.711.273-.399.738-.598 1.394-.598.696 0 1.192.2 1.489.598.304.398.457.968.457 1.71.156-.374.367-.714.633-1.019a4.28 4.28 0 0 1 .925-.797 4.517 4.517 0 0 1 1.137-.504 4.413 4.413 0 0 1 2.461-.023c.398.101.766.27 1.102.504.343.226.644.515.902.867.258.351.457.773.598 1.265.242-.523.527-.964.855-1.324a4.41 4.41 0 0 1 1.066-.867 4.331 4.331 0 0 1 1.196-.469c.422-.093.843-.14 1.265-.14.5 0 .977.09 1.43.27.461.179.863.452 1.207.82.352.359.629.816.832 1.37.211.548.316 1.188.316 1.923v5.296c0 .743-.152 1.313-.457 1.711-.296.399-.793.598-1.488.598-.656 0-1.121-.2-1.394-.598-.266-.398-.399-.968-.399-1.71v-5.133c0-.352-.047-.665-.14-.938a1.927 1.927 0 0 0-.399-.703 1.509 1.509 0 0 0-.586-.434 1.753 1.753 0 0 0-.726-.152c-.321 0-.625.05-.914.152a2.079 2.079 0 0 0-.762.47 2.39 2.39 0 0 0-.516.808c-.125.328-.187.722-.187 1.183v4.746c0 .743-.153 1.313-.457 1.711-.297.399-.793.598-1.489.598-.656 0-1.121-.2-1.394-.598-.266-.398-.399-.968-.399-1.71v-4.91c0-.805-.168-1.415-.503-1.829-.329-.414-.778-.621-1.348-.621a2.63 2.63 0 0 0-.938.164c-.289.11-.539.27-.75.48a2.302 2.302 0 0 0-.504.786 3.064 3.064 0 0 0-.175 1.078v4.851c0 .743-.153 1.313-.457 1.711-.297.399-.793.598-1.489.598-.656 0-1.121-.2-1.394-.598-.266-.398-.399-.968-.399-1.71V15.52ZM17 23a6 6 0 1 1 0-12 6 6 0 0 1 0 12Z"/><path fill="#4C556C" d="M5.376 19.05c-1.738.306-2.93 1.986-2.263 3.62a15 15 0 0 0 27.964-.488c.61-1.656-.64-3.293-2.389-3.54-1.748-.245-3.318 1.028-4.181 2.568a8.606 8.606 0 0 1-14.862.26c-.917-1.51-2.53-2.727-4.269-2.42Z"/><path fill="#4C556C" d="M31.884 18.875c.077-.615.116-1.24.116-1.875 0-8.284-6.716-15-15-15C8.716 2 2 8.716 2 17c0 .815.065 1.614.19 2.394a4.68 4.68 0 0 1 2.926-1.822c1.256-.221 2.399.084 3.364.653a8.606 8.606 0 1 1 17.077-.298c.945-.603 2.076-.947 3.34-.77a4.68 4.68 0 0 1 2.987 1.718Z"/></svg>