<svg xmlns="http://www.w3.org/2000/svg" width="58" height="58" fill="none"><g clip-path="url(#a)"><rect width="58" height="58" fill="#fff" rx="29"/><rect width="58" height="58" fill="url(#b)" rx="29"/><path fill="#D0D5DD" fill-rule="evenodd" d="M29 3.695C15.025 3.695 3.695 15.025 3.695 29S15.025 54.305 29 54.305 54.305 42.975 54.305 29 42.975 3.695 29 3.695ZM3.555 29C3.555 14.947 14.947 3.555 29 3.555S54.446 14.947 54.446 29 43.053 54.445 29 54.445 3.555 43.053 3.555 29Z" clip-rule="evenodd"/><path fill="#D0D5DD" fill-rule="evenodd" d="M29 21.891a7.11 7.11 0 1 0 0 14.219 7.11 7.11 0 0 0 0-14.219Zm-7.25 7.11a7.25 7.25 0 1 1 14.5 0 7.25 7.25 0 0 1-14.5 0Z" clip-rule="evenodd"/><path fill="#D0D5DD" fill-rule="evenodd" d="M29 24.143a4.857 4.857 0 1 0 0 9.713 4.857 4.857 0 0 0 0-9.713Zm-4.998 4.856a4.998 4.998 0 1 1 9.996 0 4.998 4.998 0 0 1-9.996 0Z" clip-rule="evenodd"/><path fill="#D0D5DD" d="M28.93 0h.14v58h-.14V0Z"/><path fill="#D0D5DD" d="M58 28.93v.14H0v-.14h58Z"/><path fill="#D0D5DD" d="M48.216 0h.14v58h-.14V0ZM19.287 0h.14v58h-.14V0Zm19.286 0h.14v58h-.14V0ZM9.643 0h.14v58h-.14V0Z"/><path fill="#D0D5DD" d="M58 48.215v.141H0v-.14h58Zm0-28.929v.14H0v-.14h58Zm0 19.286v.141H0v-.14h58Zm0-28.929v.14H0v-.14h58Z"/><g filter="url(#c)"><path fill="url(#d)" d="M39.253 18.747a14.5 14.5 0 1 0 0 20.506l-6.802-6.802a4.88 4.88 0 1 1 0-6.902l6.802-6.802Z"/></g></g><rect width="57.8" height="57.8" x=".1" y=".1" stroke="#D0D5DD" stroke-width=".2" rx="28.9"/><defs><linearGradient id="b" x1="29" x2="29" y1="0" y2="58" gradientUnits="userSpaceOnUse"><stop stop-color="#fff"/><stop offset="1" stop-color="#D0D5DD"/></linearGradient><linearGradient id="d" x1="18.747" x2="39.253" y1="18.747" y2="39.253" gradientUnits="userSpaceOnUse"><stop stop-color="#48C397"/><stop offset="1" stop-color="#3CA37E"/></linearGradient><clipPath id="a"><rect width="58" height="58" fill="#fff" rx="29"/></clipPath><filter id="c" width="30.753" height="35" x="11.5" y="12.5" color-interpolation-filters="sRGB" filterUnits="userSpaceOnUse"><feFlood flood-opacity="0" result="BackgroundImageFix"/><feColorMatrix in="SourceAlpha" result="hardAlpha" values="0 0 0 0 0 0 0 0 0 0 0 0 0 0 0 0 0 0 127 0"/><feOffset dy="1"/><feGaussianBlur stdDeviation="1"/><feColorMatrix values="0 0 0 0 0.0627451 0 0 0 0 0.0941176 0 0 0 0 0.156863 0 0 0 0.06 0"/><feBlend in2="BackgroundImageFix" result="effect1_dropShadow_58_173"/><feColorMatrix in="SourceAlpha" result="hardAlpha" values="0 0 0 0 0 0 0 0 0 0 0 0 0 0 0 0 0 0 127 0"/><feOffset dy="1"/><feGaussianBlur stdDeviation="1.5"/><feColorMatrix values="0 0 0 0 0.0627451 0 0 0 0 0.0941176 0 0 0 0 0.156863 0 0 0 0.1 0"/><feBlend in2="effect1_dropShadow_58_173" result="effect2_dropShadow_58_173"/><feBlend in="SourceGraphic" in2="effect2_dropShadow_58_173" result="shape"/></filter></defs></svg>