<svg xmlns="http://www.w3.org/2000/svg" width="126" height="44" fill="none"><path fill="#4C556C" fill-rule="evenodd" d="M115.66 27.578a4.33 4.33 0 0 1-3.588-1.42l-3.103-3.446a12.495 12.495 0 0 1-2.421-3.992 3.11 3.11 0 0 0-.18.075 12.36 12.36 0 0 0 1.821 3.651l2.725 3.751a4.215 4.215 0 0 0 4.299 1.643 4.308 4.308 0 0 0 .447-.262Zm.207-.148a4.21 4.21 0 0 1-3.703-1.356l-3.102-3.445a12.385 12.385 0 0 1-2.397-3.952c.052-.018.103-.035.155-.05a12.487 12.487 0 0 0 3.046 4.185l3.445 3.102a4.326 4.326 0 0 0 3.012 1.113 4.09 4.09 0 0 1-.456.403Zm.049.12a4.402 4.402 0 0 1-.225.158c.167-.058.332-.126.493-.206a4.34 4.34 0 0 1-.268.047Zm.696-.29a4.245 4.245 0 0 1-.494.128 4.36 4.36 0 0 0 .385-.37c.176-.01.352-.033.526-.066a4.768 4.768 0 0 1-.417.307Zm.054.112a4.313 4.313 0 0 1-1.411.587 4.34 4.34 0 0 1-5.705-1.708l-2.318-4.015a12.502 12.502 0 0 1-1.3-3.214l-3.266 1.886a4.338 4.338 0 0 1-6.482-3.274c-.186-.493-.277-1-.28-1.501a4.316 4.316 0 0 1-.122-1.523 4.312 4.312 0 0 1 .038-1.525 4.313 4.313 0 0 1 .198-1.516c.03-.526.153-1.026.355-1.486.084-.52.26-1.005.508-1.44.138-.508.364-.972.655-1.38.191-.49.464-.927.796-1.302.242-.468.558-.875.929-1.213.288-.44.646-.812 1.049-1.11a4.33 4.33 0 0 1 1.16-.992c.375-.371.801-.66 1.258-.867a4.31 4.31 0 0 1 1.341-.73 4.32 4.32 0 0 1 1.41-.587 4.34 4.34 0 0 1 5.706 1.708l1.932 3.348a12.455 12.455 0 0 1 1.471 4.004l3.482-2.01a4.34 4.34 0 0 1 6.482 3.274c.186.492.277 1 .28 1.501.134.51.171 1.024.122 1.522a4.32 4.32 0 0 1-.038 1.529 4.307 4.307 0 0 1-.198 1.513 4.307 4.307 0 0 1-.354 1.485 4.313 4.313 0 0 1-.508 1.44 4.323 4.323 0 0 1-.656 1.38c-.191.491-.463.93-.797 1.304a4.313 4.313 0 0 1-.928 1.213 4.31 4.31 0 0 1-1.05 1.109 4.3 4.3 0 0 1-1.16.993c-.374.37-.801.66-1.258.867a4.31 4.31 0 0 1-1.341.73Zm.876-.55a4.123 4.123 0 0 1-.47.255c.072-.058.141-.119.208-.181a4.45 4.45 0 0 0 .262-.075Zm.839-.516c.151-.091.298-.192.44-.304-.083.037-.167.07-.252.102a5.04 5.04 0 0 1-.188.202Zm-.057-.12a4.038 4.038 0 0 1-.382.349c-.156.07-.316.13-.478.18.124-.13.239-.266.344-.408.174-.03.347-.07.516-.121Zm.408-.281a4.07 4.07 0 0 0 .457-.23 4.596 4.596 0 0 0 .343-.387 4.23 4.23 0 0 1-.5.175c-.09.152-.19.3-.3.442Zm.126-.396c-.108.17-.229.333-.362.489a4.24 4.24 0 0 1-.584.163c.12-.176.226-.36.317-.55.212-.018.422-.053.629-.102Zm.262-.202a4.12 4.12 0 0 0 .563-.223 4.28 4.28 0 0 0 .31-.525 4.37 4.37 0 0 1-.615.168 4.254 4.254 0 0 1-.258.58Zm.116-.555c-.079.208-.174.41-.286.605a4.24 4.24 0 0 1-.66.123 4.28 4.28 0 0 0 .234-.672c.24 0 .478-.018.712-.056Zm.048-.134c.079-.232.138-.47.175-.71a4.307 4.307 0 0 1-.8-.019 4.34 4.34 0 0 1-.105.794c.246 0 .491-.023.73-.065Zm.141-.028c.073-.227.127-.459.162-.693a4.33 4.33 0 0 0 .702-.13 4.15 4.15 0 0 1-.221.632c-.209.08-.424.145-.643.191Zm.736-.094c-.074.16-.158.318-.252.47.148-.082.292-.174.43-.275a4.09 4.09 0 0 0 .301-.421c-.155.085-.315.16-.479.226Zm.608-.446c-.172.107-.352.2-.537.281.081-.197.146-.399.196-.604.204-.062.402-.14.594-.23-.07.188-.155.373-.253.553Zm.093.089a3.62 3.62 0 0 1-.142.237c.13-.12.253-.25.368-.39a4.309 4.309 0 0 1-.226.153Zm.518-.548c-.127.115-.26.221-.399.32a4.35 4.35 0 0 0 .201-.495c.157-.082.308-.174.454-.275a4.593 4.593 0 0 1-.256.45Zm.346-.353a4.08 4.08 0 0 0 .325-.425c-.068.06-.137.119-.208.175a4.22 4.22 0 0 1-.117.25Zm.211-.49c.06-.17.11-.34.148-.513.147-.098.288-.206.422-.321a4.035 4.035 0 0 1-.207.475 4.298 4.298 0 0 1-.363.359Zm-.196.161c.079-.19.143-.382.193-.577-.181.11-.37.208-.566.292a4.317 4.317 0 0 1-.132.62c.176-.099.344-.21.505-.335Zm-.661.42c.069-.214.12-.432.154-.651-.221.086-.45.153-.685.202a4.34 4.34 0 0 1-.089.707 4.31 4.31 0 0 0 .62-.258Zm-.756.3a4.23 4.23 0 0 0 .099-.725c-.26.046-.527.069-.798.065.018.267.011.535-.021.8.245-.025.485-.073.72-.14Zm-.847.152c.034-.27.042-.543.023-.815a4.369 4.369 0 0 1-.731-.092l-.198-.042c.065.308.095.62.091.932a4.2 4.2 0 0 0 .815.018Zm-.939-.034a4.241 4.241 0 0 0-.1-.944l-1.059-.225a4.3 4.3 0 0 1 .23.928l.247.08c.226.074.454.127.682.161Zm-1.06-.284a4.168 4.168 0 0 0-.245-.916l-2.999-.637a12.5 12.5 0 0 1-6.297-3.446h-.039a12.371 12.371 0 0 0 5.549 3.69l4.031 1.31Zm-9.74-4.995a12.495 12.495 0 0 0 5.67 3.804l4.087 1.328c.037.317.037.636.001.949a4.211 4.211 0 0 1-.661-.231l-4.236-1.886a12.368 12.368 0 0 1-4.925-3.96l.064-.004Zm.056-.127h.024a9.22 9.22 0 0 1-.122-.13l-.011-.001.109.131Zm-.288-.155c.044.055.088.11.133.163a2.917 2.917 0 0 0-.051.004 12.012 12.012 0 0 1-.121-.17l.039.003Zm.612.283a12.372 12.372 0 0 0 6.142 3.32l2.916.619a4.303 4.303 0 0 0-.219-.433l-.188-.327-1.751-.184a12.495 12.495 0 0 1-6.89-2.995h-.01Zm.384.152a12.368 12.368 0 0 0 6.529 2.719l1.661.174-.333-.576h-.609c-2.615 0-5.146-.82-7.248-2.317Zm8.001 2.317.342.593 1.15.12a4.169 4.169 0 0 0-.262-.408l-.222-.305h-1.008Zm.918-.124h-.99l-.26-.451.253-.024.605-.064.392.539Zm.244.124.169.232c.116.16.221.327.312.497l1.1.116a4.191 4.191 0 0 0-.429-.845h-1.152Zm1.067-.124h-1.157l-.403-.554 1.003-.106.253.28c.109.123.211.25.304.38Zm.233.124c.174.274.313.562.419.86l.258.027c.236.024.471.03.7.015a4.218 4.218 0 0 0-.293-.902h-1.084Zm1.024-.124h-1.106a4.362 4.362 0 0 0-.363-.462l-.192-.214 1.146-.12c.204.248.376.516.515.796Zm.196.124c.127.288.221.588.283.893.274-.025.542-.077.8-.153a4.286 4.286 0 0 0-.146-.802 4.38 4.38 0 0 1-.735.062h-.202Zm.9-.182c-.227.038-.46.058-.698.058h-.259a4.292 4.292 0 0 0-.506-.811l1.077-.114c.162.275.291.566.386.867Zm.16.097c.072.258.121.521.145.788a4.23 4.23 0 0 0 .674-.288 4.131 4.131 0 0 0-.053-.73 4.21 4.21 0 0 1-.766.23Zm.744-.355c-.249.103-.51.182-.78.235a4.354 4.354 0 0 0-.374-.858l.2-.021c.249-.026.491-.073.725-.139.101.253.178.516.229.783Zm.14.076c.04.234.06.471.06.71.194-.113.379-.24.553-.382.023-.223.028-.447.015-.668-.198.13-.408.243-.628.34Zm.618-.483a4.198 4.198 0 0 1-.641.357 4.375 4.375 0 0 0-.227-.768c.259-.08.506-.184.739-.309.064.235.107.476.129.72Zm.13.062c.016.21.016.422 0 .635.151-.134.293-.28.424-.434a4.17 4.17 0 0 0 .069-.604c-.154.145-.319.28-.493.403Zm.497-.58a4.28 4.28 0 0 1-.51.436 4.24 4.24 0 0 0-.134-.7c.209-.118.405-.254.589-.404.036.22.054.442.055.667Zm.124.05a4.347 4.347 0 0 1-.039.532c.102-.136.196-.278.281-.427a3.26 3.26 0 0 0 .053-.222 3.55 3.55 0 0 0 .051-.285 4.392 4.392 0 0 1-.346.402Zm.374-.655a4.161 4.161 0 0 1-.376.476 4.28 4.28 0 0 0-.066-.632c.16-.14.31-.29.448-.452.013.2.011.404-.006.608Zm.122.043a3.677 3.677 0 0 1-.034.274c.07-.163.129-.33.178-.504a4.84 4.84 0 0 1-.144.23Zm.249-.71a4.167 4.167 0 0 1-.234.453c.005-.18 0-.357-.017-.533a4.39 4.39 0 0 0 .302-.436 4.041 4.041 0 0 1-.051.516Zm.173-.464c.052-.17.094-.343.124-.52a4.325 4.325 0 0 1-.119.244c.001.091 0 .183-.005.276Zm-.007-.533a4.35 4.35 0 0 0 .186-.476 4.354 4.354 0 0 0-.004-.517c-.075.16-.16.315-.254.465.034.172.059.349.072.528Zm-.112-.704a4.06 4.06 0 0 0 .269-.542 4.064 4.064 0 0 0-.121-.597 4.294 4.294 0 0 1-.344.535c.08.195.146.397.196.604Zm-.284-.49c.08.207.144.421.191.641a4.185 4.185 0 0 1-.407.533 4.387 4.387 0 0 0-.276-.656c.178-.16.343-.333.492-.518Zm.031-.246a4.2 4.2 0 0 0 .35-.573 4.16 4.16 0 0 0-.258-.617c-.128.2-.274.389-.435.566.131.197.246.406.343.624Zm-.43-.53c.132.203.248.419.344.644a4.19 4.19 0 0 1-.498.537 4.411 4.411 0 0 0-.453-.66 4.35 4.35 0 0 0 .607-.522Zm.015-.2a4.25 4.25 0 0 0 .44-.586 4.231 4.231 0 0 0-.411-.605 4.31 4.31 0 0 1-.549.582c.192.186.366.39.52.609Zm-.615-.528c.196.19.373.398.528.622a4.155 4.155 0 0 1-.617.532 4.303 4.303 0 0 0-.691-.632l.175-.1a4.38 4.38 0 0 0 .605-.422Zm.004-.167a4.12 4.12 0 0 0 .558-.594 4.203 4.203 0 0 0-3.189-1.46h-4.637c-.329 0-.654-.041-.968-.12l-.013.259c.363.162.753.268 1.156.31l4.611.485c.964.1 1.82.51 2.482 1.12Zm-8.258-1.783c.363.157.751.26 1.152.302l4.611.484c.93.098 1.758.492 2.4 1.078a4.41 4.41 0 0 1-.577.4l-.224.129a4.317 4.317 0 0 0-1.549-.663l-4.535-.964a3.814 3.814 0 0 1-1.296-.54l.018-.226Zm-.113-.19c.005-.078.008-.156.011-.235a3.92 3.92 0 0 1-.085-.026l.006.227.068.035Zm-.067.107.059.028-.016.2-.044-.031.001-.197Zm-.127-.208-.006-.201-.061-.022.02.196.047.027Zm-.034.123a6.4 6.4 0 0 0 .036.02 4.67 4.67 0 0 1 0 .168 4.082 4.082 0 0 1-.024-.02l-.012-.168Zm-.146-.231-.018-.166-.038-.016.03.165a.59.59 0 0 0 .026.017Zm.001.148.013.008.011.13-.003-.002a3.179 3.179 0 0 0-.021-.136Zm-.171-.263a5.76 5.76 0 0 0-.025-.129.186.186 0 0 0-.014-.007l.035.134.004.002Zm-.083-.296.027.014a9.385 9.385 0 0 0-.035-.164 2.885 2.885 0 0 1-.039-.012l.047.162Zm-.192-.209.038.126-.003-.002-.049-.129.014.005Zm.101-.098.051.017-.047-.196a4.824 4.824 0 0 1-.065-.009l.061.188Zm-.2-.21.053.159-.029-.01a9.141 9.141 0 0 0-.064-.157l.04.008Zm.095-.11.075.01-.062-.227-.089.002.076.214Zm-.209-.216.068.19-.053-.011-.08-.181.065.002Zm.087-.123c.033 0 .066 0 .099-.002a22.105 22.105 0 0 0-.08-.262 4.819 4.819 0 0 1-.112.021c.032.08.063.161.093.242Zm-.22-.223c.03.073.058.146.086.22l-.076-.003a14.834 14.834 0 0 0-.097-.206l.087-.011Zm.079-.138.121-.022c-.033-.1-.068-.2-.104-.3a3.628 3.628 0 0 1-.133.05c.04.09.078.18.116.272Zm-.234-.233c.036.083.072.167.107.252a4.668 4.668 0 0 1-.098.011 17.279 17.279 0 0 0-.118-.23l.109-.033Zm.068-.154a4.22 4.22 0 0 0 .141-.052 12.375 12.375 0 0 0-3.322-4.894l-2.873-2.587a4.202 4.202 0 0 0-3.05-1.076 4.118 4.118 0 0 0-.406.532 4.32 4.32 0 0 1 2.332.824l3.127 2.272a12.494 12.494 0 0 1 4.051 4.981Zm-9.586-7.956a4.198 4.198 0 0 1 2.335.803l3.127 2.272a12.37 12.37 0 0 1 4.005 4.92l-.118.035a12.499 12.499 0 0 0-4.755-4.899l-3.348-1.933a4.32 4.32 0 0 0-1.564-.54c.086-.227.193-.447.318-.658Zm-.069-.126c.111-.179.236-.35.374-.513-.201.02-.401.053-.598.101-.149.14-.286.29-.411.448.21-.027.423-.04.635-.036Zm-.742.178a4.23 4.23 0 0 1 .668-.054 4.425 4.425 0 0 0-.302.644 4.333 4.333 0 0 0-.714-.019c.1-.198.216-.389.348-.571Zm-.071-.115c.106-.141.22-.277.344-.407-.162.05-.321.11-.477.18a4.274 4.274 0 0 0-.383.35 4.39 4.39 0 0 1 .516-.123Zm-.687.31a4.2 4.2 0 0 1 .583-.163c-.12.176-.226.36-.317.55a4.383 4.383 0 0 0-.629.102c.108-.17.229-.333.363-.489Zm-.073-.106c.06-.069.122-.136.187-.202a4.144 4.144 0 0 0-.439.304c.083-.037.167-.07.252-.102Zm-.62.428c.148-.086.3-.162.456-.229-.11.142-.21.29-.3.441-.17.049-.337.107-.5.176a4.223 4.223 0 0 1 .344-.388Zm-.413.274a4.241 4.241 0 0 0-.406.348c.079-.045.159-.088.241-.128.052-.074.107-.148.165-.22Zm-.307.435a4.103 4.103 0 0 0-.43.276 4.048 4.048 0 0 0-.302.421 4.45 4.45 0 0 1 .48-.226c.073-.16.157-.318.252-.47Zm-.323.635a4.28 4.28 0 0 0-.537.281c-.099.18-.183.366-.253.554.192-.091.39-.168.593-.23.051-.205.116-.407.197-.605Zm-.058.564a4.15 4.15 0 0 1 .222-.631c.208-.08.423-.145.642-.192a4.369 4.369 0 0 0-.162.694 4.336 4.336 0 0 0-.702.129Zm-.171.18c-.213.07-.42.157-.62.259a4.35 4.35 0 0 0-.154.65c.222-.085.45-.153.685-.202.011-.237.04-.473.089-.706Zm.037.683c.012-.243.046-.485.1-.724.234-.068.475-.115.719-.141a4.28 4.28 0 0 0-.021.8 4.312 4.312 0 0 0-.798.065Zm-.129.152c-.24.052-.475.124-.7.216a4.15 4.15 0 0 0-.025.73 4.39 4.39 0 0 1 .787-.147 4.359 4.359 0 0 1-.062-.799Zm.187.789a4.184 4.184 0 0 1-.062-.813c.264-.049.536-.072.811-.068.03.31.092.617.188.917l-.2-.021a4.357 4.357 0 0 0-.737-.015Zm-.102.133a4.181 4.181 0 0 0-.8.152c.022.271.071.54.146.802.239-.04.485-.062.735-.062h.201a4.304 4.304 0 0 1-.282-.892Zm.419.892a4.165 4.165 0 0 1-.294-.902c.23-.014.464-.01.701.016l.257.027c.106.297.245.585.418.86h-1.082Zm-.08.125h-.258c-.238 0-.472.02-.699.058.095.3.224.591.387.866l1.076-.113a4.346 4.346 0 0 1-.506-.811Zm.654.795a4.195 4.195 0 0 1-.515-.795h1.105c.109.16.231.315.364.463l.191.212-1.145.12Zm-.053.131-1.099.116c.167.264.366.511.595.737l1.126-.24-.212-.19a4.338 4.338 0 0 1-.41-.423Zm.773.582-.28-.252a4.233 4.233 0 0 1-.342-.346l1.15-.12.458.508-.016.004-.97.206Zm-.036.135-1.132.24c.118.109.244.211.377.308l.304.221.943-.306.016-.005-.508-.458Zm.646.414-.496-.446.882-.188.087-.018.378.42a12.75 12.75 0 0 0-.851.232Zm-.03.14a5.16 5.16 0 0 0-.085.027l-.857.279.54.392c.271-.117.545-.223.822-.32l-.42-.378Zm.554.332-.416-.375c.277-.084.557-.159.838-.223l.334.37c-.254.069-.506.144-.756.228Zm-.029.142a11.72 11.72 0 0 0-.81.31l.453.329c.24-.11.483-.212.728-.306l-.371-.333Zm.502.284-.366-.33c.246-.08.493-.154.743-.219l.291.323c-.224.07-.447.144-.668.226Zm-.027.143c-.241.091-.48.19-.716.296l1.472 1.07a3.947 3.947 0 0 1 1.406 1.893l.005-.029a3.822 3.822 0 0 0-1.237-2.393l-.93-.837Zm2.119 3.54a3.82 3.82 0 0 0-1.436-2.074l-1.529-1.11c-.261.12-.519.252-.773.392l2.185 1.261a3.95 3.95 0 0 1 1.541 1.624l.012-.093Zm-.041.322a3.815 3.815 0 0 0-1.575-1.745l-2.249-1.298-.077.044-.78.45 3.047 1.357a3.941 3.941 0 0 1 1.619 1.33l.015-.138Zm-.033.334a3.824 3.824 0 0 0-1.652-1.412l-3.129-1.394-1.002.579c.146.066.297.125.453.176l3.676 1.194a3.94 3.94 0 0 1 1.639 1.034l.015-.177Zm-.026.348a3.818 3.818 0 0 0-1.666-1.086l-3.677-1.195a4.403 4.403 0 0 1-.546-.218l-.957.552c.43.286.92.496 1.455.61l3.781.804a3.937 3.937 0 0 1 1.599.743l.011-.21Zm.11.308.007-.17.007.007.004.178-.018-.015Zm-.126.057a3.814 3.814 0 0 0-1.62-.776l-3.781-.804a4.326 4.326 0 0 1-1.549-.662l-.224.129a4.24 4.24 0 0 0-.576.4c.641.585 1.469.98 2.399 1.077l3.845.404a3.943 3.943 0 0 1 1.501.474c.001-.081.002-.162.005-.242Zm.119.313.003-.21c.009.01.019.018.029.027l.011.21-.043-.027Zm-.125.071a3.82 3.82 0 0 0-1.513-.492l-3.845-.404a4.32 4.32 0 0 1-2.482-1.12 4.19 4.19 0 0 0-.558.594 4.204 4.204 0 0 0 3.189 1.46h3.866c.463 0 .919.08 1.346.236a12.492 12.492 0 0 1-.003-.274Zm.129.322a20.279 20.279 0 0 1-.004-.246l.054.034.02.241a2.544 2.544 0 0 0-.07-.029Zm-.122.087a3.811 3.811 0 0 0-1.35-.247h-3.866a4.328 4.328 0 0 1-3.266-1.482c-.144.199-.27.41-.376.629a4.213 4.213 0 0 0 3.888 1.766l3.844-.405a3.94 3.94 0 0 1 1.14.047c-.006-.103-.01-.206-.014-.308Zm.141.333a8.942 8.942 0 0 1-.014-.283l.079.034.032.272a4.256 4.256 0 0 0-.097-.023Zm-.119.103a3.813 3.813 0 0 0-1.135-.05l-3.844.403a4.337 4.337 0 0 1-3.961-1.76 4.234 4.234 0 0 0-.223.633 4.216 4.216 0 0 0 4.524 2.01l3.781-.805a3.97 3.97 0 0 1 .887-.085c-.011-.115-.021-.23-.029-.346Zm.155.35c-.011-.107-.02-.215-.028-.323l.107.026c.014.102.03.204.046.305a3.745 3.745 0 0 0-.125-.008Zm-.113.12a3.814 3.814 0 0 0-.874.083l-3.781.804a4.34 4.34 0 0 1-4.592-1.959 4.225 4.225 0 0 0-.088.6 4.215 4.215 0 0 0 5.11 2.2l3.676-1.194c.196-.063.396-.111.597-.143-.018-.13-.034-.26-.048-.39Zm.171.373a15.039 15.039 0 0 1-.046-.367c.045.002.09.005.135.01.02.113.041.227.064.34a3.97 3.97 0 0 0-.153.017Zm-.106.14a3.802 3.802 0 0 0-.575.14l-3.677 1.194a4.34 4.34 0 0 1-5.16-2.065c-.002.17.006.34.024.51a4.214 4.214 0 0 0 5.652 2.348l3.531-1.573a4.15 4.15 0 0 1 .279-.111 13.2 13.2 0 0 1-.074-.442Zm.193.402c-.025-.14-.049-.279-.069-.419.053-.007.107-.012.161-.017.027.128.057.256.088.383-.06.016-.12.034-.18.053Zm-.095.164a3.904 3.904 0 0 0-.252.102l-3.532 1.572a4.338 4.338 0 0 1-5.62-1.973 4.214 4.214 0 0 0 6.216 2.707l3.297-1.904c-.04-.167-.076-.335-.109-.504Zm.222.44a11.32 11.32 0 0 1-.103-.48c.062-.02.124-.04.187-.056.037.144.077.288.119.431a4.244 4.244 0 0 0-.203.105Zm.03.126c.277 1.117.71 2.2 1.296 3.216l2.318 4.015a4.216 4.216 0 0 0 5.105 1.848 4.337 4.337 0 0 1-3.95-1.767l-2.725-3.75a12.497 12.497 0 0 1-1.834-3.672 3.744 3.744 0 0 0-.21.11Zm.288-.284c.057-.025.115-.049.173-.071a12.12 12.12 0 0 1-.127-.372c-.054.01-.107.022-.159.034.035.137.073.274.113.41Zm-.144-.53.151-.032c-.035-.11-.068-.221-.1-.333l-.134.005c.026.12.053.24.083.36Zm-.109-.484a3.79 3.79 0 0 1 .126-.005 7.84 7.84 0 0 1-.078-.298 4.73 4.73 0 0 0-.109-.015c.019.106.039.213.061.318Zm-.083-.446.099.012a11.985 11.985 0 0 1-.06-.267 4.404 4.404 0 0 0-.083-.026c.013.094.028.188.044.28Zm-.063-.416.073.022a9.535 9.535 0 0 1-.045-.238 1.74 1.74 0 0 0-.058-.029l.03.245Zm-.045-.39.046.022a7.361 7.361 0 0 1-.033-.208l-.032-.023.019.209Zm-.031-.37.019.014a10.49 10.49 0 0 1-.023-.176l-.007-.008.011.17Zm.187.294.028.168.021.012-.041-.173-.008-.007Zm.092.346-.035-.02.041.206.048.017c-.018-.067-.037-.135-.054-.203Zm.2.259a9.265 9.265 0 0 1-.046-.164.055.055 0 0 1 .008.006l.059.167-.021-.01Zm-.103.093a4.889 4.889 0 0 0-.06-.023c.017.08.036.16.055.24l.075.014a9.447 9.447 0 0 1-.07-.231Zm.21.261a13.613 13.613 0 0 1-.062-.2l.036.016.075.196a1.97 1.97 0 0 0-.049-.012Zm-.097.106a3.657 3.657 0 0 0-.085-.017c.023.092.047.183.073.274.033 0 .067.001.1.003l-.088-.26Zm.223.267a9.73 9.73 0 0 1-.081-.234l.062.017c.031.074.062.149.094.222a4.731 4.731 0 0 0-.075-.006Zm-.09.12a4.04 4.04 0 0 0-.11-.005c.03.104.061.208.094.31l.125-.017a10.04 10.04 0 0 1-.109-.289Zm.237.273a12.472 12.472 0 0 1-.101-.265l.087.008c.037.084.075.166.114.249a3.742 3.742 0 0 0-.1.008Zm-.081.134a4.046 4.046 0 0 0-.133.019c.038.117.078.234.12.35l.147-.048a12.445 12.445 0 0 1-.134-.32Zm.255.286a15.44 15.44 0 0 1-.126-.299l.11-.008.138.276-.122.03Zm.051.115a12.37 12.37 0 0 0 3.008 4.127l3.446 3.102a4.2 4.2 0 0 0 3.05 1.077c.15-.168.285-.346.405-.532a4.314 4.314 0 0 1-2.331-.824l-3.751-2.725a12.49 12.49 0 0 1-3.696-4.257 3.12 3.12 0 0 0-.131.032Zm.258-.059a12.357 12.357 0 0 0 3.642 4.183l3.751 2.726a4.194 4.194 0 0 0 2.334.802c.125-.21.232-.43.318-.658a4.325 4.325 0 0 1-1.563-.54l-4.016-2.318a12.494 12.494 0 0 1-4.358-4.214 3.705 3.705 0 0 0-.108.019Zm-.061-.115.099-.019a11.22 11.22 0 0 1-.14-.235h-.087c.042.086.084.17.128.254Zm-.188-.376.076-.002a15.41 15.41 0 0 1-.116-.212l-.064-.01.104.224Zm-.163-.357.05.006a53.954 53.954 0 0 1-.096-.187l-.037-.012.083.193Zm-.144-.342.022.007-.076-.16-.009-.005c.021.053.041.106.063.158Zm.269.221.079.151.023.005a9.39 9.39 0 0 1-.092-.152l-.01-.004Zm.194.301a2.7 2.7 0 0 0-.039-.008l.103.183.051.001a12.096 12.096 0 0 1-.115-.176Zm.27.184a9.158 9.158 0 0 1-.094-.142l.01.003c.035.047.071.095.108.141l-.024-.002Zm-.069.12a4.567 4.567 0 0 0-.064-.002l.127.211.075-.01a9.031 9.031 0 0 1-.138-.198Zm.222.315a3.676 3.676 0 0 0-.087.01 12.37 12.37 0 0 0 4.286 4.126l4.015 2.318a4.2 4.2 0 0 0 1.545.528c.089-.257.154-.523.192-.792a4.4 4.4 0 0 1-.696-.243l-4.235-1.885a12.487 12.487 0 0 1-5.02-4.062Zm10.073 6.219a4.336 4.336 0 0 1-.187.779c.244.025.49.028.733.01.102-.222.185-.452.248-.687a4.317 4.317 0 0 1-.794-.102Zm.016-.124c.269.06.54.095.809.102.062-.265.098-.536.108-.808a4.383 4.383 0 0 1-.717-.168l-.193-.063a4.31 4.31 0 0 1-.007.937Zm.467 1.043a4.327 4.327 0 0 1-.713-.02 4.434 4.434 0 0 1-.303.645c.224 0 .448-.019.668-.054a4.19 4.19 0 0 0 .348-.571Zm-.455.712a4.36 4.36 0 0 1-.635.037 4.29 4.29 0 0 1-.374.513c.201-.02.401-.053.598-.101.149-.141.287-.291.411-.449Zm-8.66-7.544a12.37 12.37 0 0 0 6.78 2.024h.537l-.254-.44a12.496 12.496 0 0 1-7.063-1.584Zm.484.12a12.373 12.373 0 0 0 6.51 1.343l-.218-.377a12.5 12.5 0 0 1-6.292-.966Zm6.427.95.221.383a12.4 12.4 0 0 0 .309-.028l.534-.056-.299-.412c-.254.046-.51.084-.765.114Zm.684-.225c-.25.044-.501.08-.752.108l-.193-.334c.23-.035.46-.078.688-.126l.257.352Zm.217.087.306.421.984-.103-.445-.495-.595.127-.25.05Zm.749-.284-.525.112c-.102.021-.203.042-.305.06l-.26-.356c.251-.057.501-.12.75-.193l.34.378Zm.236.077.458.509 1.151-.121a4.245 4.245 0 0 0-.342-.345l-.28-.252-.987.21Zm.873-.312-.969.206-.348-.387c.081-.025.162-.05.243-.077l.579-.188.495.446Zm.265.07.213.192c.148.134.284.274.409.422l1.1-.115a4.17 4.17 0 0 0-.596-.738l-1.126.24Zm1.017-.343-1.132.24-.508-.457.959-.312.305.222c.133.096.258.199.376.307Zm.255.073c.226.232.422.485.588.754l.257-.027c.237-.025.467-.069.689-.13a4.2 4.2 0 0 0-.475-.822l-1.059.225Zm.975-.334-1.081.23a4.396 4.396 0 0 0-.452-.377l-.232-.168 1.096-.356c.251.2.475.426.669.67Zm.217.08c.184.256.339.53.462.815a4.13 4.13 0 0 0 .752-.315 4.28 4.28 0 0 0-.31-.755 4.31 4.31 0 0 1-.706.214l-.198.042Zm.843-.365a4.225 4.225 0 0 1-.671.202l-.253.054a4.348 4.348 0 0 0-.664-.688l1.03-.335c.216.235.403.493.558.767Zm.176.063c.125.236.227.484.306.74.213-.124.414-.265.6-.422a4.239 4.239 0 0 0-.203-.703c-.22.148-.454.277-.703.385Zm.655-.503a4.18 4.18 0 0 1-.714.393 4.34 4.34 0 0 0-.545-.762l.192-.062c.238-.078.465-.174.68-.287.152.227.281.467.387.718Zm.153.045c.087.22.156.449.206.682.166-.15.321-.314.461-.488a4.126 4.126 0 0 0-.124-.657 4.347 4.347 0 0 1-.543.463Zm.503-.6a4.193 4.193 0 0 1-.552.482 4.309 4.309 0 0 0-.382-.704c.236-.133.456-.285.659-.456.111.217.203.444.275.678Zm-.335-.79a4.266 4.266 0 0 0-.46-.673 4.378 4.378 0 0 1-.647.355l-.184.082c.233.212.441.447.622.7.24-.134.464-.29.669-.464Zm-.78.524a4.191 4.191 0 0 0-.635-.704l-.99.44c.27.18.514.387.732.615l.246-.08c.227-.073.443-.164.647-.27Zm-1.025.394a4.19 4.19 0 0 0-.735-.597l-1.053.468.248.143c.173.1.335.21.489.328l1.051-.342Zm-1.196.389a4.31 4.31 0 0 0-.406-.267l-.326-.188-.922.41.554.402 1.1-.357Zm-1.247.405-.538-.392-.556.248c-.078.035-.156.068-.234.101l.387.349.941-.306Zm-1.078.35-.377-.34c-.24.098-.482.188-.726.27l.296.328c.099-.03.198-.06.297-.092l.51-.166Zm-.94.297-.292-.324c-.222.072-.446.138-.671.198l.226.312c.247-.054.493-.116.737-.186Zm-.87.214-.223-.307c-.205.052-.411.099-.618.14l.166.289a12.2 12.2 0 0 0 .675-.122Zm-.807.14-.163-.282a12.5 12.5 0 0 1-4.803-.032 12.38 12.38 0 0 0 4.966.315Zm-4.465-.35c1.405.229 2.838.213 4.236-.046l-.139-.24c-1.337.32-2.721.418-4.097.287Zm4.223-.316.142.245c.203-.04.405-.084.605-.134l-.191-.264c-.184.055-.37.106-.556.153Zm.478-.26c-.18.053-.361.102-.543.147l-.367-.636a3.816 3.816 0 0 1-.479-2.403 3.94 3.94 0 0 0 .74 1.998l.649.894Zm.204.069.195.269c.221-.058.441-.122.659-.191l-.254-.282c-.199.073-.399.14-.6.203Zm.51-.304c-.194.07-.39.136-.588.197l-.675-.929a3.824 3.824 0 0 1-.728-2.34 3.95 3.95 0 0 0 .945 1.91l1.046 1.162Zm.215.053.258.286c.24-.08.478-.167.714-.262l-.324-.291c-.214.095-.43.184-.648.267Zm.546-.359c-.209.093-.421.18-.635.26l-1.079-1.199a3.822 3.822 0 0 1-.968-2.24l.001-.005a3.948 3.948 0 0 0 1.138 1.795l1.543 1.39Zm.226.036.328.295c.095-.04.19-.08.285-.123l.49-.218-.411-.299c-.228.122-.459.237-.692.345Zm.58-.426c-.224.119-.451.23-.681.335l-1.585-1.427a3.826 3.826 0 0 1-1.162-1.962l.013-.061c.28.615.716 1.153 1.272 1.558l2.143 1.557Zm.234.015.421.306.904-.402-.576-.333-.528.304a11.4 11.4 0 0 1-.221.125Zm.624-.501-.465.268c-.09.052-.18.103-.271.152l-2.192-1.592a3.82 3.82 0 0 1-1.301-1.673l.019-.102c.338.531.801.979 1.356 1.3l2.854 1.647Zm.249 0 .593.342 1.057-.47a4.243 4.243 0 0 0-.432-.223l-.344-.153-.874.504Zm.733-.567-.857.495-2.917-1.684a3.814 3.814 0 0 1-1.385-1.376l.022-.137c.377.438.849.793 1.387 1.032l3.75 1.67Zm.274-.014.262.116c.181.081.355.173.52.275l1.01-.45a4.213 4.213 0 0 0-.794-.517l-.998.576Zm.861-.641-1.002.578-3.833-1.707a3.81 3.81 0 0 1-1.412-1.083l.022-.167c.395.342.857.605 1.363.77l4.41 1.432c.156.051.307.11.452.177Zm.265-.01c.287.151.552.331.792.536l.237-.105c.217-.097.422-.21.615-.337a4.24 4.24 0 0 0-.706-.635l-.938.542Zm.824-.62-.957.554a4.377 4.377 0 0 0-.546-.22l-4.409-1.432a3.806 3.806 0 0 1-1.383-.8l.021-.197c.39.246.825.424 1.285.522l4.535.964a4.194 4.194 0 0 1 1.454.61Zm-7.391-2.172a.875.875 0 0 1-.034-.024l-.006.168.023.022.017-.166Zm-.035.322-.012-.011-.008.138.003.003.017-.13Zm-.125-.303.003-.132a.146.146 0 0 0-.013-.01l.007.138.003.003Zm-.86-1.553a3.02 3.02 0 0 0-.051-.122.812.812 0 0 1-.015-.003l.063.123.003.002Zm-.142-.273.029.008a9.013 9.013 0 0 0-.068-.153 2.829 2.829 0 0 1-.041-.003l.08.148Zm-.231-.164.063.115h-.003l-.075-.117.015.002Zm.078-.117.054.006-.088-.182a3.442 3.442 0 0 1-.064.005l.098.171Zm-.239-.164c.029.048.057.096.084.145a3.111 3.111 0 0 1-.03-.005 9.012 9.012 0 0 0-.095-.14h.041Zm.069-.128c.026 0 .051-.002.076-.004a8.85 8.85 0 0 0-.108-.21 4.457 4.457 0 0 1-.086.02l.118.194Zm-.248-.167.106.172h-.054l-.116-.16.064-.012Zm.059-.139.096-.022a12.362 12.362 0 0 0-4.692-4.822l-3.348-1.933a4.197 4.197 0 0 0-1.546-.528 4.228 4.228 0 0 0-.192.793c.235.06.468.14.697.242l3.531 1.572a12.496 12.496 0 0 1 5.454 4.698Zm-9.698-6.388c.223.058.445.135.662.232l3.532 1.572a12.373 12.373 0 0 1 5.373 4.61l-.075.012a12.495 12.495 0 0 0-6.136-4.387l-3.356-1.09a4.18 4.18 0 0 1 0-.949Zm-.106-.154c.039-.264.101-.525.188-.778a4.218 4.218 0 0 0-.734-.011 4.344 4.344 0 0 0-.248.687c.265.01.53.043.794.102Zm-.825.022c.269.008.54.041.809.102-.036.31-.039.623-.007.937l-.191-.062a4.38 4.38 0 0 0-.719-.169c.01-.272.046-.543.108-.808Zm-.097-.126c.059-.23.138-.454.234-.672a4.232 4.232 0 0 0-.659.123 4.143 4.143 0 0 0-.287.604c.234-.038.473-.056.712-.055Zm-.76.19c.24-.043.484-.065.73-.066a4.34 4.34 0 0 0-.105.794 4.306 4.306 0 0 0-.8-.018c.037-.24.096-.478.175-.71Zm-.193.836a4.19 4.19 0 0 0-.023.815c.242.01.487.04.732.092l.196.042a4.31 4.31 0 0 1-.09-.932 4.187 4.187 0 0 0-.815-.017Zm.939.034a4.24 4.24 0 0 0 .1.943l1.059.225a4.304 4.304 0 0 1-.231-.927l-.245-.08a4.228 4.228 0 0 0-.683-.161Zm1.06.284c.046.309.127.616.244.915l2.247.478a12.493 12.493 0 0 1 6.787 3.972l.054-.006a12.375 12.375 0 0 0-6.032-4.287l-3.3-1.072Zm9.418 5.474-.041.005.109.129.031.001-.099-.135Zm.189.263a.75.75 0 0 1-.015 0l.086.107.004.001a3.184 3.184 0 0 0-.075-.108Zm-.295-.142a6.063 6.063 0 0 0-.086-.1l-.015.002.097.098h.004Zm-.22-.215.031-.002a12.37 12.37 0 0 0-6.658-3.863l-2.163-.46c.063.147.136.292.219.435l.188.325.986.104a12.495 12.495 0 0 1 7.397 3.46Zm-8.306-3.431.896.094a12.374 12.374 0 0 1 7.236 3.342h-.005a12.495 12.495 0 0 0-7.794-2.859l-.333-.577Zm-.23-.15-.143-.247c-.1-.173-.186-.35-.26-.529l-1.081-.23c.078.303.19.6.338.886l1.146.12Zm-1.074.013 1.151.12.342.593h-1.009l-.221-.304a4.197 4.197 0 0 1-.263-.41Zm-.219-.149a4.29 4.29 0 0 1-.327-.898l-.252-.054a4.243 4.243 0 0 0-.696-.089c.031.314.096.626.198.928l1.077.113Zm-1.031.017 1.099.116c.092.17.196.337.313.498l.168.231h-1.151a4.192 4.192 0 0 1-.429-.845Zm.514.97c.093.13.194.257.304.38l.252.279.986-.104.017-.001-.402-.554h-1.157Zm1.311 0 .392.54c.294-.027.587-.044.88-.05l-.282-.49h-.99Zm1.135.002.28.486a12.498 12.498 0 0 1 7.061 2.102 12.374 12.374 0 0 0-7.341-2.588Zm6.911 2.46a12.37 12.37 0 0 0-6.559-1.85l.246.427c2.187-.088 4.366.4 6.313 1.423Zm-6.453-1.417-.249-.432c-.289.005-.578.02-.867.044l.33.453c.261-.03.524-.052.786-.065Zm-.702.181c.257-.028.515-.048.772-.06l.218.377c-.234.02-.468.048-.7.082l-.29-.399Zm-.226-.099-.332-.457-.089.01-.896.093.447.496c.289-.057.579-.105.87-.142Zm-.773.25c.285-.055.57-.1.857-.134l.293.403c-.259.041-.518.09-.775.148l-.375-.417Zm.471.523.33.366c.228-.058.457-.11.687-.154l-.256-.352c-.255.038-.509.085-.761.14Zm.9-.16.252.346c.207-.038.414-.07.622-.098l-.188-.326c-.229.02-.457.045-.686.077Zm.824-.088.184.319a12.5 12.5 0 0 1 4.897.377 12.376 12.376 0 0 0-5.081-.696Zm4.636.707a12.374 12.374 0 0 0-4.384-.271l.057.1c.033.056.065.114.095.172a12.493 12.493 0 0 1 4.232 0Zm-4.361.024a6.11 6.11 0 0 0-.073-.133l-.084-.146a12.24 12.24 0 0 0-.608.094l.216.298c.182-.042.365-.08.549-.113Zm-.469.223c.175-.04.351-.075.527-.107.371.767.474 1.637.293 2.47a3.948 3.948 0 0 0-.753-2.27l-.067-.093Zm-.211-.08-.221-.303a11.9 11.9 0 0 0-.674.148l.287.319c.201-.06.404-.114.608-.163Zm-.516.267c.197-.058.396-.11.595-.157l.098.136c.56.77.81 1.718.707 2.66a3.941 3.941 0 0 0-.986-2.18l-.414-.46Zm-.132.039c-.22.066-.438.139-.655.217l.881.793a3.94 3.94 0 0 1 1.208 2.064 3.816 3.816 0 0 0-.981-2.57l-.453-.504Zm4.783 8.083a12.37 12.37 0 0 0 5.857.042l-.349-.605a3.945 3.945 0 0 1-.394-2.992l.02-.072a3.84 3.84 0 0 1 .038-.337l.012-.075a3.824 3.824 0 0 1 .003-.338l.004-.077a3.749 3.749 0 0 1-.032-.336l-.004-.076a4.079 4.079 0 0 1-.08-.406 3.921 3.921 0 0 1-.101-.323l-.02-.074a4.152 4.152 0 0 1-.135-.31l-.027-.071a3.607 3.607 0 0 1-.166-.294l-.035-.067a3.756 3.756 0 0 1-.196-.276l-.041-.063a3.598 3.598 0 0 1-.225-.254l-.047-.058a3.966 3.966 0 0 1-.304-.283 3.993 3.993 0 0 1-.332-.25 3.773 3.773 0 0 1-.29-.171l-.064-.04a3.98 3.98 0 0 1-.308-.142l-.067-.034a3.987 3.987 0 0 1-.392-.134 3.96 3.96 0 0 1-.331-.074 12.37 12.37 0 0 0-5.263-.248 3.94 3.94 0 0 1 .242 2.702 13.18 13.18 0 0 0-.154.644 12.2 12.2 0 0 0-.057.465c-.006.156-.009.311-.009.467.011.157.025.314.041.47.027.154.057.308.089.46.043.15.089.3.137.448.058.145.119.29.183.432.074.14.15.277.229.413.088.131.178.26.27.387.101.12.204.239.308.355.112.108.226.214.341.318.123.096.247.19.373.28.134.085.27.167.407.245.14.07.282.135.425.199.147.054.295.105.444.153Zm1.795-8.532a12.37 12.37 0 0 0-5.808-1.222l.214.37a12.507 12.507 0 0 1 5.594.852Zm-.971 8.991a12.37 12.37 0 0 0 5.722.777l-.189-.329a12.497 12.497 0 0 1-5.533-.448Zm-8.598-15.287a4.35 4.35 0 0 0-.614.167c.089-.18.192-.355.309-.524a4.29 4.29 0 0 1 .563-.223 4.249 4.249 0 0 0-.258.58Zm22.482 13.728a4.51 4.51 0 0 0 .399-.496c.033.198.053.4.058.605-.096.178-.205.35-.325.512a4.18 4.18 0 0 0-.132-.621Zm-27.681-.286c0-.09.003-.181.01-.272a4.37 4.37 0 0 1-.109-.254c.022.176.054.351.099.526Zm-.13-1.02a4.257 4.257 0 0 0 .164.492 4.36 4.36 0 0 1 .099-.521 4.313 4.313 0 0 1-.233-.48 4.31 4.31 0 0 0-.03.51Zm.068-.76c.068.193.15.38.242.557a4.28 4.28 0 0 1 .226-.595 4.31 4.31 0 0 1-.318-.55 4.223 4.223 0 0 0-.15.587Zm.076-.75a4.35 4.35 0 0 0-.153.507 4.27 4.27 0 0 1-.111-.506c.017-.17.045-.338.083-.503.05.172.11.34.18.501Zm.134-.004c.092.205.2.4.32.586.108-.211.233-.415.374-.608a4.355 4.355 0 0 1-.406-.584 4.235 4.235 0 0 0-.288.606Zm.217-.732a4.37 4.37 0 0 0-.286.568 4.188 4.188 0 0 1-.183-.58c.057-.195.128-.385.211-.568.072.2.159.394.258.58Zm.144.003c.12.214.257.416.41.605.164-.209.347-.404.55-.582a4.362 4.362 0 0 1-.52-.61 4.3 4.3 0 0 0-.44.587Zm.368-.692a4.317 4.317 0 0 0-.435.566 4.182 4.182 0 0 1-.258-.617c.101-.2.218-.392.35-.573.097.217.212.426.343.624Zm.159.012c.156.223.332.431.528.621.187-.154.389-.296.606-.42l.174-.102a4.333 4.333 0 0 1-.69-.631 4.176 4.176 0 0 0-.618.532Zm.536-.628c-.22.157-.424.332-.607.522a4.223 4.223 0 0 1-.345-.644 4.16 4.16 0 0 1 .499-.538c.13.234.282.455.453.66Zm.185.025c.21.236.445.449.705.634l.938-.541a4.307 4.307 0 0 1-.792-.535l-.236.105c-.218.097-.423.21-.615.337Zm.748-.533-.184.082a4.366 4.366 0 0 0-.646.356 4.24 4.24 0 0 1-.46-.674c.205-.174.428-.33.669-.465.18.254.388.49.621.701Zm.23.034c.24.2.506.373.794.518l.997-.576-.262-.117a4.409 4.409 0 0 1-.52-.274l-1.01.45Zm.884-.53-.99.44a4.207 4.207 0 0 1-.635-.704 4.22 4.22 0 0 1 .647-.271l.246-.08c.218.229.462.435.732.615Zm.264.019c.138.081.282.156.432.222l.344.154.858-.496.015-.008-.592-.343-1.057.47Zm.923-.548-1.052.469a4.188 4.188 0 0 1-.735-.598l1.051-.341c.153.118.316.228.489.327l.247.143Zm.274.015.578.333c.257-.144.519-.278.784-.403l-.457-.333-.082.037-.823.366Zm.788-.487-.016.007-.905.403-.326-.189a4.327 4.327 0 0 1-.407-.266l1.1-.358.554.403Zm-.678-.493-.232-.168a4.37 4.37 0 0 1-.451-.377l-1.082.23c.195.245.418.47.67.67l1.095-.355Zm-1.236.402a4.292 4.292 0 0 1-.664-.689l-.252.054a4.25 4.25 0 0 0-.672.202c.155.274.342.532.558.767l1.03-.334Zm-1.16.376a4.34 4.34 0 0 1-.544-.761c-.254.108-.492.24-.715.392.106.25.236.491.388.718.215-.113.441-.209.68-.287l.191-.062Zm-.981.408a4.367 4.367 0 0 1-.382-.704 4.202 4.202 0 0 0-.552.482c.072.234.165.461.276.678a4.3 4.3 0 0 1 .658-.456Zm-.755.54a4.35 4.35 0 0 1-.276-.657c-.15.167-.287.345-.408.533.047.22.111.434.192.641a4.34 4.34 0 0 1 .492-.518Zm-.581.631a4.32 4.32 0 0 1-.196-.604 4.242 4.242 0 0 0-.27.544c.027.203.067.402.122.596.101-.187.216-.366.344-.536Zm-.427.695a4.304 4.304 0 0 1-.128-.517c-.054.16-.1.325-.135.492a4.19 4.19 0 0 0 .058.515 4.37 4.37 0 0 1 .205-.49Zm-.282.735a4.336 4.336 0 0 1-.053-.27c-.016.176-.02.354-.013.533.02-.088.041-.176.066-.263Zm.023-1.251c.028-.087.06-.172.093-.256a4.13 4.13 0 0 1-.025-.275 4.195 4.195 0 0 0-.068.53Zm.192-1.01a4.335 4.335 0 0 0 .004.518c.075-.16.16-.316.255-.466a4.32 4.32 0 0 1-.073-.529 4.208 4.208 0 0 0-.186.476Zm.3-.704a4.2 4.2 0 0 0 .058.606c.12-.175.253-.34.398-.497a4.326 4.326 0 0 1-.132-.621 4.24 4.24 0 0 0-.325.512Zm.303-.69a4.34 4.34 0 0 0-.302.436 4.215 4.215 0 0 1 .05-.516 4.18 4.18 0 0 1 .235-.454 4.3 4.3 0 0 0 .017.534Zm.13.038c.023.223.065.443.123.657a4.33 4.33 0 0 1 .544-.463 4.359 4.359 0 0 1-.206-.682 4.09 4.09 0 0 0-.461.488Zm.433-.63c-.16.14-.31.292-.448.453-.013-.2-.012-.404.005-.609a4.31 4.31 0 0 1 .376-.475c.007.213.03.424.067.632Zm.135.048c.048.24.116.476.204.703a4.31 4.31 0 0 1 .702-.384 4.376 4.376 0 0 1-.306-.74 4.212 4.212 0 0 0-.6.421Zm.564-.544a4.332 4.332 0 0 0-.589.404 4.178 4.178 0 0 1-.054-.667 4.23 4.23 0 0 1 .509-.437c.025.237.07.471.134.7Zm.147.06c.079.261.183.514.31.755.226-.09.461-.162.707-.214l.196-.041a4.33 4.33 0 0 1-.462-.815 4.185 4.185 0 0 0-.751.316Zm.703-.43c-.258.08-.505.184-.738.308a4.217 4.217 0 0 1-.129-.72c.202-.136.416-.256.64-.356.052.262.128.519.227.768Zm.169.08c.126.289.285.565.475.821l1.059-.225a4.286 4.286 0 0 1-.588-.754l-.257.027a4.243 4.243 0 0 0-.69.13Zm.876-.276-.2.021c-.25.027-.491.073-.725.139a4.245 4.245 0 0 1-.23-.783c.25-.102.51-.181.78-.235.094.297.219.585.375.858Zm-.41-.978a4.364 4.364 0 0 1-.145-.787c-.234.076-.46.173-.675.288-.003.245.015.489.053.729.246-.1.502-.177.767-.23Zm-.885.28a4.345 4.345 0 0 1-.06-.71c-.194.112-.378.24-.552.38a4.191 4.191 0 0 0-.015.67c.198-.13.408-.244.627-.34Zm-.747.42a4.312 4.312 0 0 1 0-.634 4.247 4.247 0 0 0-.423.433 4.173 4.173 0 0 0-.07.604c.154-.146.319-.28.493-.402Zm-.62.53c.001-.177.014-.355.038-.533a4.194 4.194 0 0 0-.28.427 4.257 4.257 0 0 0-.105.507c.108-.14.223-.275.346-.401Zm-.496.611a4.3 4.3 0 0 1 .033-.274c-.07.163-.129.331-.178.505a4.33 4.33 0 0 1 .145-.23Zm.409-1.184c.053-.073.11-.144.167-.214.018-.09.038-.179.062-.268a4.174 4.174 0 0 0-.23.482Zm.495-.9a4.337 4.337 0 0 0-.157.493c.121-.128.25-.25.386-.363.02-.175.052-.35.094-.525a4.194 4.194 0 0 0-.323.395Zm.501-.576a4.182 4.182 0 0 0-.132.594c.169-.13.347-.246.532-.35.007-.21.03-.42.067-.63a4.29 4.29 0 0 0-.467.386Zm.502-.563a4.362 4.362 0 0 0-.421.322 4.326 4.326 0 0 1 .207-.475 4.24 4.24 0 0 1 .363-.359c-.06.17-.11.34-.149.512Zm.111.076c-.046.22-.074.442-.085.664.211-.109.432-.2.66-.273a4.342 4.342 0 0 1 .014-.712 4.238 4.238 0 0 0-.588.321Zm.607-.464c-.196.083-.385.18-.566.292.05-.195.114-.388.193-.577.16-.124.329-.237.505-.336-.06.205-.104.412-.132.62Zm.185-.792c.057-.168.124-.333.202-.494a4.189 4.189 0 0 0-.399.319 4.21 4.21 0 0 0-.256.45c.146-.1.297-.193.453-.275Zm-.66.428a5.11 5.11 0 0 1 .116-.25 4.17 4.17 0 0 0-.324.425c.067-.06.137-.119.208-.175Zm.755-1c.074-.052.149-.103.225-.151.045-.08.092-.159.142-.237-.13.12-.252.25-.367.389Zm-1.52 1.987a4.4 4.4 0 0 0-.09.26 4.336 4.336 0 0 0-.188.196c.084-.16.177-.311.278-.456Zm-1.808 4.163a4.4 4.4 0 0 0-.005.276c-.042.08-.082.162-.12.245.031-.178.073-.352.125-.521Zm-.433 4.518c.024.09.051.178.08.264-.015.09-.028.18-.037.27a4.2 4.2 0 0 1-.043-.534ZM103.194 1.6c.086-.028.173-.053.261-.075.067-.062.136-.123.208-.181-.161.074-.317.16-.469.256Zm.929-.438a4.651 4.651 0 0 0-.417.307c.174-.033.35-.055.526-.067.12-.13.248-.253.385-.37a4.25 4.25 0 0 0-.494.13Zm.745-.171c-.163.124-.316.26-.456.403a4.324 4.324 0 0 1 3.012 1.113l2.873 2.586a12.499 12.499 0 0 1 3.354 4.94c.056-.024.111-.05.166-.076a12.352 12.352 0 0 0-2.66-4.738l-2.586-2.872A4.21 4.21 0 0 0 104.868.99Zm9.062 8.908a12.49 12.49 0 0 0-2.68-4.763l-2.587-2.873a4.33 4.33 0 0 0-3.588-1.42 4.148 4.148 0 0 1 .446-.262 4.216 4.216 0 0 1 4.3 1.643l2.272 3.127a12.378 12.378 0 0 1 2.034 4.438l-.072.042a3.55 3.55 0 0 1-.125.068Zm-.077.179c-.053.025-.106.05-.159.072.038.106.075.213.11.32.049-.01.097-.023.146-.036a13.27 13.27 0 0 0-.097-.356Zm.216.32a9.946 9.946 0 0 0-.103-.377c.051-.026.101-.054.151-.083l.039-.022c.031.14.061.282.087.424-.057.021-.115.04-.174.059Zm-.089.157a4.044 4.044 0 0 1-.137.035c.03.094.059.188.086.283a3.64 3.64 0 0 0 .122-.01 10.884 10.884 0 0 0-.071-.308Zm.196.295c-.024-.11-.049-.22-.076-.33a5.37 5.37 0 0 0 .166-.055c.021.12.041.242.059.364-.05.008-.099.015-.149.021Zm-.098.136a3.976 3.976 0 0 1-.114.01c.024.083.046.166.068.25l.098.01a12.26 12.26 0 0 0-.052-.27Zm.18.277a9.616 9.616 0 0 0-.056-.29l.14-.02c.015.104.027.209.039.314-.041 0-.082-.002-.123-.004Zm-.105.119a3.819 3.819 0 0 1-.088-.007l.052.221.074.02a17.99 17.99 0 0 0-.038-.234Zm.169.264a11.056 11.056 0 0 0-.042-.257l.114.003c.009.09.017.182.024.273a4.075 4.075 0 0 1-.096-.02Zm-.111.102a4.811 4.811 0 0 1-.063-.015l.04.193.05.022a337.76 337.76 0 0 0-.027-.2Zm.159.254-.029-.225.087.016a9.3 9.3 0 0 1 .013.236c-.024-.008-.047-.018-.071-.027Zm.198.07c.031.011.063.02.094.03.003-.091.004-.182.005-.274a3.282 3.282 0 0 1-.113-.014c.006.086.01.172.014.259Zm-.023-.386c.04.007.081.012.122.017a16.8 16.8 0 0 0-.006-.318 3.662 3.662 0 0 1-.142.006c.01.098.019.197.026.295Zm-.039-.42a3.81 3.81 0 0 0 .151-.005 11.334 11.334 0 0 0-.021-.368 3.875 3.875 0 0 1-.171.037c.015.112.029.224.041.337Zm-.059-.46c.06-.011.12-.025.18-.04a12.433 12.433 0 0 0-.043-.43l-.041.018a3.317 3.317 0 0 1-.159.066c.023.129.044.257.063.387Zm-.086-.51a3.45 3.45 0 0 0 .131-.056l.076-.034c-.02-.163-.044-.325-.072-.487l-.227.132c.033.147.064.295.092.444Zm-.122-.572.235-.135a12.383 12.383 0 0 0-1.464-4.009l-1.933-3.348a4.216 4.216 0 0 0-5.105-1.848 4.335 4.335 0 0 1 3.949 1.767l2.273 3.127a12.495 12.495 0 0 1 2.045 4.446Zm.373-.071c.028.166.053.333.075.5l4.041-1.799a4.34 4.34 0 0 1 5.62 1.973 4.215 4.215 0 0 0-6.216-2.706l-3.52 2.032Zm9.818 1.162a4.214 4.214 0 0 0-5.652-2.347l-4.075 1.814c.018.15.033.301.046.452l.136-.041 4.409-1.433a4.34 4.34 0 0 1 5.16 2.065 4.36 4.36 0 0 0-.024-.51Zm.012.764a4.214 4.214 0 0 0-5.109-2.2l-4.41 1.432a3.647 3.647 0 0 1-.164.05c.009.13.017.26.022.39a3.82 3.82 0 0 0 .447-.067l4.535-.964a4.34 4.34 0 0 1 4.591 1.958c.044-.197.073-.397.088-.6Zm.004.754c.043-.171.076-.345.098-.521a4.093 4.093 0 0 1 .164.492c0 .17-.01.34-.03.51a4.402 4.402 0 0 0-.232-.481Zm-.134.018a4.216 4.216 0 0 0-4.523-2.01l-4.535.965a3.963 3.963 0 0 1-.469.07c.004.113.006.226.006.34.24.02.483.018.726-.007l4.611-.485a4.337 4.337 0 0 1 3.961 1.76 4.21 4.21 0 0 0 .223-.633Zm-.14.751a4.4 4.4 0 0 0 .226-.596c.093.178.174.365.242.559a4.245 4.245 0 0 1-.15.587 4.287 4.287 0 0 0-.318-.55Zm-.143.012a4.213 4.213 0 0 0-3.888-1.766l-4.611.484a3.943 3.943 0 0 1-.739.009c0 .098-.002.197-.005.296.312.081.636.124.964.124h4.637a4.33 4.33 0 0 1 3.266 1.482c.144-.2.27-.41.376-.63Zm-.293.727a4.4 4.4 0 0 0 .373-.609c.122.186.229.382.321.587-.08.21-.176.412-.288.606a4.357 4.357 0 0 0-.406-.584Zm.477.71c.099.186.186.38.258.58a4.36 4.36 0 0 0 .211-.568 4.172 4.172 0 0 0-.183-.58 4.35 4.35 0 0 1-.286.568Zm.352-.736c.07.162.13.33.181.502a4.45 4.45 0 0 0 .083-.504 4.459 4.459 0 0 0-.112-.506c-.04.172-.091.342-.152.508Zm.204-.76c.029.086.056.174.081.263a4.178 4.178 0 0 0-.043-.533c-.01.09-.023.18-.038.27Zm.108 1.247c-.02.09-.042.177-.067.265.021.089.039.18.054.271.015-.177.02-.356.013-.536Zm-.086 1.026a4.467 4.467 0 0 0-.058-.516 4.37 4.37 0 0 1-.205.49c.053.168.096.341.128.518.054-.16.1-.325.135-.492Zm-.097.747a4.1 4.1 0 0 1 .024.274c.034-.173.057-.35.069-.53a3.85 3.85 0 0 1-.093.256Zm-.017-4.266a5.104 5.104 0 0 0-.108-.254c.006-.09.009-.18.01-.271.044.174.077.35.098.525ZM105.044.713a4.54 4.54 0 0 0-.225.159c-.09.013-.179.028-.268.047a4.17 4.17 0 0 1 .493-.206Zm18.541 19.482c-.054.073-.11.145-.168.215-.017.09-.038.179-.062.268.086-.154.163-.316.23-.483Zm-.495.901a4.067 4.067 0 0 0 .156-.494c-.121.13-.25.251-.386.364-.02.176-.051.351-.094.526.115-.125.224-.257.324-.396Zm-.393.644a3.69 3.69 0 0 1-.089.261c.102-.145.195-.297.279-.457a4.282 4.282 0 0 1-.19.196Zm-.109-.067c.059-.197.102-.396.132-.595a4.41 4.41 0 0 1-.533.35c-.006.21-.028.421-.066.631a4.33 4.33 0 0 0 .467-.386Zm-.614.486c.047-.22.075-.442.086-.663a4.28 4.28 0 0 1-.66.272c.014.237.01.475-.015.712.205-.091.402-.198.589-.32Zm-.72.377c.029-.243.036-.487.023-.73a4.295 4.295 0 0 1-.786.148c.045.263.066.53.062.798.24-.052.475-.124.701-.216Zm-.826.24a4.264 4.264 0 0 0-.062-.813 4.367 4.367 0 0 1-.737-.015l-.201-.02c.096.299.158.607.188.917.275.004.547-.02.812-.068Zm-.938.065a4.252 4.252 0 0 0-.198-.928l-1.077-.113c.144.29.252.591.326.898l.254.054c.233.05.465.079.695.089Zm-1.084-.172a4.202 4.202 0 0 0-.339-.885l-1.145-.12.143.248c.1.172.186.349.259.527l1.082.23Zm1.601 2.385a4.452 4.452 0 0 1-.24.128 4.57 4.57 0 0 1-.166.22c.142-.106.277-.222.406-.348Z" clip-rule="evenodd"/><path fill="#4C556C" d="M3.58 21.284H0v16.15h9.909V34.27h-6.33V21.284Zm6.67 10.672c0 3.449 2.314 5.74 5.806 5.74 3.47 0 5.784-2.291 5.784-5.74 0-3.448-2.314-5.762-5.784-5.762-3.492 0-5.805 2.314-5.805 5.762Zm3.383-.022c0-1.637.96-2.728 2.423-2.728 1.44 0 2.401 1.091 2.401 2.728 0 1.66-.96 2.75-2.4 2.75-1.463 0-2.423-1.09-2.423-2.75Zm8.747-.152c0 3.296 2.14 5.522 5.173 5.522 1.462 0 2.728-.524 3.361-1.375v1.506c0 1.506-.938 2.51-2.597 2.51-1.484 0-2.51-.699-2.575-1.943h-3.405C22.642 40.992 24.956 43 28.12 43c3.732 0 6.089-2.422 6.089-6.264V26.522h-3.034l-.174 1.113c-.611-.895-1.9-1.484-3.383-1.484-3.056 0-5.238 2.292-5.238 5.63Zm3.405-.087c0-1.572 1.048-2.62 2.38-2.62 1.549 0 2.684 1.026 2.684 2.62 0 1.593-1.113 2.684-2.663 2.684-1.331 0-2.4-1.091-2.4-2.684Zm9.405.261c0 3.449 2.313 5.74 5.805 5.74 3.47 0 5.784-2.291 5.784-5.74 0-3.448-2.314-5.762-5.784-5.762-3.492 0-5.805 2.314-5.805 5.762Zm3.383-.022c0-1.637.96-2.728 2.422-2.728 1.44 0 2.4 1.091 2.4 2.728 0 1.66-.96 2.75-2.4 2.75-1.462 0-2.422-1.09-2.422-2.75Zm11.104-7.114a1.905 1.905 0 0 0 1.898-1.921c0-1.07-.85-1.899-1.898-1.899-1.07 0-1.921.83-1.921 1.899 0 1.07.851 1.92 1.92 1.92Zm-1.703 12.614h3.383V26.523h-3.383v10.913Zm5.352 5.238h3.318v-6.329c.633.83 2.073 1.397 3.58 1.397 3.251 0 5.215-2.488 5.128-5.937-.087-3.514-2.117-5.63-5.15-5.63-1.55 0-3.012.676-3.624 1.68l-.174-1.331h-3.078v16.15Zm3.383-10.694c0-1.637 1.092-2.728 2.663-2.728 1.593 0 2.597 1.113 2.597 2.728 0 1.615-1.004 2.728-2.597 2.728-1.571 0-2.663-1.091-2.663-2.728Zm9.001 2.008c.088 2.204 1.834 3.732 4.584 3.732 2.64 0 4.474-1.397 4.474-3.645 0-1.615-.96-2.684-2.75-3.12l-1.942-.481c-.699-.175-1.135-.35-1.135-.917 0-.567.458-.938 1.135-.938.763 0 1.265.502 1.244 1.244h3.033c-.087-2.27-1.811-3.689-4.212-3.689-2.423 0-4.234 1.44-4.234 3.623 0 1.463.807 2.663 2.968 3.23l1.92.503c.568.152.808.414.808.785 0 .546-.502.895-1.353.895-.982 0-1.506-.458-1.506-1.222H65.71Zm14.203 3.732c1.331 0 2.663-.61 3.34-1.506l.217 1.223h3.165V26.522h-3.361v5.675c0 1.636-.48 2.531-2.03 2.531-1.2 0-1.986-.545-1.986-2.575v-5.631h-3.361v6.853c0 2.597 1.44 4.343 4.016 4.343Zm12.052-.283v-5.959c0-1.833.982-2.357 1.943-2.357 1.07 0 1.767.655 1.767 2.008v6.308h3.318v-5.959c0-1.855.96-2.379 1.92-2.379 1.07 0 1.79.655 1.79 2.03v6.308h3.274v-7.137c0-2.488-1.31-4.147-4.125-4.147-1.571 0-2.86.764-3.427 1.942-.654-1.178-1.79-1.942-3.6-1.942-1.201 0-2.314.546-2.969 1.419l-.13-1.048h-3.144v10.913h3.383Z"/></svg>